<mxfile host="app.diagrams.net" modified="2024-04-23T02:22:22.732Z" agent="Mozilla/5.0 (Windows NT 10.0; Win64; x64) AppleWebKit/537.36 (KHTML, like Gecko) Chrome/124.0.0.0 Safari/537.36 Edg/124.0.0.0" etag="ZV-7GGP4uk_yLhfNni3t" version="24.2.7" type="device">
  <diagram name="第 1 页" id="3g3Wfdjch880W8ioHcnG">
    <mxGraphModel dx="907" dy="666" grid="1" gridSize="10" guides="1" tooltips="1" connect="1" arrows="1" fold="1" page="1" pageScale="1" pageWidth="827" pageHeight="1169" math="0" shadow="0">
      <root>
        <mxCell id="0" />
        <mxCell id="1" parent="0" />
        <mxCell id="HdxCdrpS5fzfI6IJm-NW-1" value="开始" style="rounded=1;whiteSpace=wrap;html=1;" parent="1" vertex="1">
          <mxGeometry x="280" y="30" width="120" height="60" as="geometry" />
        </mxCell>
        <mxCell id="69fULzKzqIoQ-AIb7Wg8-10" style="edgeStyle=orthogonalEdgeStyle;rounded=0;orthogonalLoop=1;jettySize=auto;html=1;exitX=0;exitY=0.5;exitDx=0;exitDy=0;entryX=0.5;entryY=0;entryDx=0;entryDy=0;" edge="1" parent="1" source="HdxCdrpS5fzfI6IJm-NW-3" target="HdxCdrpS5fzfI6IJm-NW-8">
          <mxGeometry relative="1" as="geometry" />
        </mxCell>
        <mxCell id="HdxCdrpS5fzfI6IJm-NW-3" value="train_predict" style="rounded=0;whiteSpace=wrap;html=1;" parent="1" vertex="1">
          <mxGeometry x="150" y="210" width="120" height="60" as="geometry" />
        </mxCell>
        <mxCell id="69fULzKzqIoQ-AIb7Wg8-19" style="edgeStyle=orthogonalEdgeStyle;rounded=0;orthogonalLoop=1;jettySize=auto;html=1;exitX=0.5;exitY=1;exitDx=0;exitDy=0;entryX=0.5;entryY=0;entryDx=0;entryDy=0;" edge="1" parent="1" source="HdxCdrpS5fzfI6IJm-NW-4" target="HdxCdrpS5fzfI6IJm-NW-3">
          <mxGeometry relative="1" as="geometry" />
        </mxCell>
        <mxCell id="69fULzKzqIoQ-AIb7Wg8-20" style="edgeStyle=orthogonalEdgeStyle;rounded=0;orthogonalLoop=1;jettySize=auto;html=1;exitX=1;exitY=0.75;exitDx=0;exitDy=0;entryX=0.5;entryY=0;entryDx=0;entryDy=0;" edge="1" parent="1" source="HdxCdrpS5fzfI6IJm-NW-4" target="69fULzKzqIoQ-AIb7Wg8-2">
          <mxGeometry relative="1" as="geometry" />
        </mxCell>
        <mxCell id="HdxCdrpS5fzfI6IJm-NW-4" value="读入training_iter和testing_iter" style="shape=parallelogram;perimeter=parallelogramPerimeter;whiteSpace=wrap;html=1;fixedSize=1;" parent="1" vertex="1">
          <mxGeometry x="280" y="110" width="130" height="60" as="geometry" />
        </mxCell>
        <mxCell id="69fULzKzqIoQ-AIb7Wg8-12" value="" style="edgeStyle=orthogonalEdgeStyle;rounded=0;orthogonalLoop=1;jettySize=auto;html=1;" edge="1" parent="1" source="HdxCdrpS5fzfI6IJm-NW-5" target="HdxCdrpS5fzfI6IJm-NW-7">
          <mxGeometry relative="1" as="geometry" />
        </mxCell>
        <mxCell id="69fULzKzqIoQ-AIb7Wg8-14" style="edgeStyle=orthogonalEdgeStyle;rounded=0;orthogonalLoop=1;jettySize=auto;html=1;exitX=1;exitY=0.5;exitDx=0;exitDy=0;entryX=0;entryY=0.5;entryDx=0;entryDy=0;" edge="1" parent="1" source="HdxCdrpS5fzfI6IJm-NW-5" target="69fULzKzqIoQ-AIb7Wg8-4">
          <mxGeometry relative="1" as="geometry" />
        </mxCell>
        <mxCell id="HdxCdrpS5fzfI6IJm-NW-5" value="loss=label-predict" style="rounded=0;whiteSpace=wrap;html=1;" parent="1" vertex="1">
          <mxGeometry x="60" y="400" width="120" height="60" as="geometry" />
        </mxCell>
        <mxCell id="69fULzKzqIoQ-AIb7Wg8-13" value="" style="edgeStyle=orthogonalEdgeStyle;rounded=0;orthogonalLoop=1;jettySize=auto;html=1;" edge="1" parent="1" source="HdxCdrpS5fzfI6IJm-NW-7" target="69fULzKzqIoQ-AIb7Wg8-1">
          <mxGeometry relative="1" as="geometry" />
        </mxCell>
        <mxCell id="HdxCdrpS5fzfI6IJm-NW-7" value="loss&lt;span style=&quot;background-color: initial;&quot;&gt;求导&lt;/span&gt;" style="rounded=0;whiteSpace=wrap;html=1;" parent="1" vertex="1">
          <mxGeometry x="60" y="490" width="120" height="60" as="geometry" />
        </mxCell>
        <mxCell id="69fULzKzqIoQ-AIb7Wg8-11" value="" style="edgeStyle=orthogonalEdgeStyle;rounded=0;orthogonalLoop=1;jettySize=auto;html=1;" edge="1" parent="1" source="HdxCdrpS5fzfI6IJm-NW-8" target="HdxCdrpS5fzfI6IJm-NW-5">
          <mxGeometry relative="1" as="geometry" />
        </mxCell>
        <mxCell id="HdxCdrpS5fzfI6IJm-NW-8" value="设置grad_zero" style="rounded=0;whiteSpace=wrap;html=1;" parent="1" vertex="1">
          <mxGeometry x="60" y="310" width="120" height="60" as="geometry" />
        </mxCell>
        <mxCell id="69fULzKzqIoQ-AIb7Wg8-18" style="edgeStyle=orthogonalEdgeStyle;rounded=0;orthogonalLoop=1;jettySize=auto;html=1;exitX=0.5;exitY=1;exitDx=0;exitDy=0;" edge="1" parent="1" source="69fULzKzqIoQ-AIb7Wg8-1" target="HdxCdrpS5fzfI6IJm-NW-4">
          <mxGeometry relative="1" as="geometry">
            <mxPoint x="30" y="150" as="targetPoint" />
            <Array as="points">
              <mxPoint x="120" y="700" />
              <mxPoint x="30" y="700" />
              <mxPoint x="30" y="150" />
            </Array>
          </mxGeometry>
        </mxCell>
        <mxCell id="69fULzKzqIoQ-AIb7Wg8-1" value="更新梯度" style="rounded=0;whiteSpace=wrap;html=1;" vertex="1" parent="1">
          <mxGeometry x="60" y="585" width="120" height="60" as="geometry" />
        </mxCell>
        <mxCell id="69fULzKzqIoQ-AIb7Wg8-21" style="edgeStyle=orthogonalEdgeStyle;rounded=0;orthogonalLoop=1;jettySize=auto;html=1;exitX=1;exitY=0.5;exitDx=0;exitDy=0;entryX=0.5;entryY=0;entryDx=0;entryDy=0;" edge="1" parent="1" source="69fULzKzqIoQ-AIb7Wg8-2" target="69fULzKzqIoQ-AIb7Wg8-7">
          <mxGeometry relative="1" as="geometry" />
        </mxCell>
        <mxCell id="69fULzKzqIoQ-AIb7Wg8-2" value="test_predict" style="rounded=0;whiteSpace=wrap;html=1;" vertex="1" parent="1">
          <mxGeometry x="380" y="210" width="120" height="60" as="geometry" />
        </mxCell>
        <mxCell id="69fULzKzqIoQ-AIb7Wg8-16" style="edgeStyle=orthogonalEdgeStyle;rounded=0;orthogonalLoop=1;jettySize=auto;html=1;exitX=0.5;exitY=1;exitDx=0;exitDy=0;" edge="1" parent="1" source="69fULzKzqIoQ-AIb7Wg8-3" target="69fULzKzqIoQ-AIb7Wg8-5">
          <mxGeometry relative="1" as="geometry" />
        </mxCell>
        <mxCell id="69fULzKzqIoQ-AIb7Wg8-3" value="accuracy每epoch=当前正确总数/当前总数" style="rounded=0;whiteSpace=wrap;html=1;" vertex="1" parent="1">
          <mxGeometry x="270" y="400" width="120" height="60" as="geometry" />
        </mxCell>
        <mxCell id="69fULzKzqIoQ-AIb7Wg8-15" style="edgeStyle=orthogonalEdgeStyle;rounded=0;orthogonalLoop=1;jettySize=auto;html=1;exitX=0.5;exitY=1;exitDx=0;exitDy=0;entryX=0.5;entryY=0;entryDx=0;entryDy=0;" edge="1" parent="1" source="69fULzKzqIoQ-AIb7Wg8-4" target="69fULzKzqIoQ-AIb7Wg8-3">
          <mxGeometry relative="1" as="geometry" />
        </mxCell>
        <mxCell id="69fULzKzqIoQ-AIb7Wg8-4" value="累加loss、正确数、sample数" style="rounded=0;whiteSpace=wrap;html=1;" vertex="1" parent="1">
          <mxGeometry x="270" y="310" width="120" height="60" as="geometry" />
        </mxCell>
        <mxCell id="69fULzKzqIoQ-AIb7Wg8-17" style="edgeStyle=orthogonalEdgeStyle;rounded=0;orthogonalLoop=1;jettySize=auto;html=1;exitX=0.5;exitY=1;exitDx=0;exitDy=0;entryX=0;entryY=0.5;entryDx=0;entryDy=0;" edge="1" parent="1" source="69fULzKzqIoQ-AIb7Wg8-5" target="69fULzKzqIoQ-AIb7Wg8-6">
          <mxGeometry relative="1" as="geometry" />
        </mxCell>
        <mxCell id="69fULzKzqIoQ-AIb7Wg8-5" value="每epoch输出loss和accuracy" style="rounded=0;whiteSpace=wrap;html=1;" vertex="1" parent="1">
          <mxGeometry x="270" y="490" width="120" height="60" as="geometry" />
        </mxCell>
        <mxCell id="69fULzKzqIoQ-AIb7Wg8-6" value="画图" style="rounded=0;whiteSpace=wrap;html=1;" vertex="1" parent="1">
          <mxGeometry x="390" y="584.5" width="120" height="60" as="geometry" />
        </mxCell>
        <mxCell id="69fULzKzqIoQ-AIb7Wg8-22" style="edgeStyle=orthogonalEdgeStyle;rounded=0;orthogonalLoop=1;jettySize=auto;html=1;exitX=0.5;exitY=1;exitDx=0;exitDy=0;entryX=0.5;entryY=0;entryDx=0;entryDy=0;" edge="1" parent="1" source="69fULzKzqIoQ-AIb7Wg8-7" target="69fULzKzqIoQ-AIb7Wg8-8">
          <mxGeometry relative="1" as="geometry" />
        </mxCell>
        <mxCell id="69fULzKzqIoQ-AIb7Wg8-7" value="累加正确数、sample数" style="rounded=0;whiteSpace=wrap;html=1;" vertex="1" parent="1">
          <mxGeometry x="500" y="310" width="120" height="60" as="geometry" />
        </mxCell>
        <mxCell id="69fULzKzqIoQ-AIb7Wg8-23" style="edgeStyle=orthogonalEdgeStyle;rounded=0;orthogonalLoop=1;jettySize=auto;html=1;exitX=0.5;exitY=1;exitDx=0;exitDy=0;entryX=0.5;entryY=0;entryDx=0;entryDy=0;" edge="1" parent="1" source="69fULzKzqIoQ-AIb7Wg8-8" target="69fULzKzqIoQ-AIb7Wg8-9">
          <mxGeometry relative="1" as="geometry" />
        </mxCell>
        <mxCell id="69fULzKzqIoQ-AIb7Wg8-8" value="accuracy每epoch=当前正确总数/当前总数" style="rounded=0;whiteSpace=wrap;html=1;" vertex="1" parent="1">
          <mxGeometry x="500" y="400" width="120" height="60" as="geometry" />
        </mxCell>
        <mxCell id="69fULzKzqIoQ-AIb7Wg8-24" style="edgeStyle=orthogonalEdgeStyle;rounded=0;orthogonalLoop=1;jettySize=auto;html=1;exitX=0.5;exitY=1;exitDx=0;exitDy=0;entryX=1;entryY=0.5;entryDx=0;entryDy=0;" edge="1" parent="1" source="69fULzKzqIoQ-AIb7Wg8-9" target="69fULzKzqIoQ-AIb7Wg8-6">
          <mxGeometry relative="1" as="geometry" />
        </mxCell>
        <mxCell id="69fULzKzqIoQ-AIb7Wg8-9" value="输出accuracy" style="rounded=0;whiteSpace=wrap;html=1;" vertex="1" parent="1">
          <mxGeometry x="500" y="490" width="120" height="60" as="geometry" />
        </mxCell>
      </root>
    </mxGraphModel>
  </diagram>
</mxfile>
